<?xml version="1.0" encoding="iso-8859-1"?>
<!-- Generator: Adobe Illustrator 19.0.0, SVG Export Plug-In . SVG Version: 6.00 Build 0)  -->
<svg version="1.1" id="Layer_1" xmlns="http://www.w3.org/2000/svg" xmlns:xlink="http://www.w3.org/1999/xlink" x="0px" y="0px"
	 viewBox="0 0 512 512" style="enable-background:new 0 0 512 512;" xml:space="preserve">
<g>
	<g>
		<path style="fill:#FFFFFF" d="M477.42,340.613l-1.419-0.467c-0.001,0-0.002-0.001-0.003-0.001l-116.787-38.448V163.76c0-2.95-1.26-5.598-3.261-7.46
			c-0.032-0.033-0.054-0.065-0.091-0.098l-89.919-81.474V44.102h14.021c5.633,0,10.199-4.566,10.199-10.199
			c0-5.633-4.566-10.199-10.199-10.199h-14.021V10.199C265.941,4.566,261.375,0,255.742,0c-5.633,0-10.199,4.566-10.199,10.199
			v13.505h-14.02c-5.633,0-10.199,4.566-10.199,10.199c0,5.633,4.566,10.199,10.199,10.199h14.02v30.632l-89.721,81.475
			c-0.022,0.02-0.031,0.041-0.05,0.061c-2.019,1.863-3.292,4.524-3.292,7.489v137.942l-116.48,38.442
			c-0.002,0.001-0.005,0.001-0.007,0.002l-1.419,0.468c-4.18,1.38-7.004,5.284-7.004,9.686v151.5
			c0,5.633,4.566,10.199,10.199,10.199h436.464c5.633,0,10.199-4.566,10.199-10.199v-151.5
			C484.431,345.897,481.604,341.99,477.42,340.613z M152.479,491.602H47.966v-131.57h104.512V491.602z M152.479,339.633h-49.846
			l49.846-16.45V339.633z M255.75,93.02l66.816,60.542H189.08L255.75,93.02z M297.513,491.602h-83.337v-50.933
			c0-22.61,15.866-41.005,35.368-41.005h12.601c19.502,0,35.368,18.395,35.368,41.005V491.602z M338.813,491.602h-20.901v-50.933
			c0-33.858-25.017-61.403-55.766-61.403h-12.601c-30.75,0-55.766,27.545-55.766,61.403v50.933h-20.901V349.833V173.96h165.936
			V491.602z M359.211,323.172l50.002,16.462h-50.002V323.172z M464.033,491.602H359.211v-131.57h104.821V491.602z"/>
	</g>
</g>
<g>
	<g>
		<path style="fill:#FFFFFF" d="M255.742,214.367c-14.614,0-26.505,11.89-26.505,26.505v72.328c0,5.632,4.566,10.199,10.199,10.199h32.61
			c5.633,0,10.199-4.566,10.199-10.199v-72.328C282.246,226.257,270.357,214.367,255.742,214.367z M261.848,303h-12.212v-62.128
			c0-3.367,2.74-6.106,6.106-6.106c3.367,0,6.105,2.74,6.105,6.106V303z"/>
	</g>
</g>
<g>
	<g>
		<path style="fill:#FFFFFF" d="M390.752,463.775h-2.061c-5.633,0-10.199,4.566-10.199,10.199c0,5.633,4.566,10.199,10.199,10.199h2.061
			c5.633,0,10.199-4.566,10.199-10.199C400.952,468.341,396.385,463.775,390.752,463.775z"/>
	</g>
</g>
<g>
	<g>
		<path style="fill:#FFFFFF" d="M446.404,463.775H422.7c-5.633,0-10.199,4.566-10.199,10.199c0,5.633,4.566,10.199,10.199,10.199h23.704
			c5.633,0,10.199-4.566,10.199-10.199C456.604,468.341,452.037,463.775,446.404,463.775z"/>
	</g>
</g>
<g>
</g>
<g>
</g>
<g>
</g>
<g>
</g>
<g>
</g>
<g>
</g>
<g>
</g>
<g>
</g>
<g>
</g>
<g>
</g>
<g>
</g>
<g>
</g>
<g>
</g>
<g>
</g>
<g>
</g>
</svg>
